<?xml version="1.0" encoding="UTF-8" standalone="no"?>
<!-- Created with Inkscape (http://www.inkscape.org/) -->

<svg
   xmlns:osb="http://www.openswatchbook.org/uri/2009/osb"
   xmlns:dc="http://purl.org/dc/elements/1.1/"
   xmlns:cc="http://creativecommons.org/ns#"
   xmlns:rdf="http://www.w3.org/1999/02/22-rdf-syntax-ns#"
   xmlns:svg="http://www.w3.org/2000/svg"
   xmlns="http://www.w3.org/2000/svg"
   xmlns:xlink="http://www.w3.org/1999/xlink"
   xmlns:sodipodi="http://sodipodi.sourceforge.net/DTD/sodipodi-0.dtd"
   xmlns:inkscape="http://www.inkscape.org/namespaces/inkscape"
   width="210mm"
   height="297mm"
   viewBox="0 0 744.09448819 1052.3622047"
   id="svg2"
   version="1.1"
   inkscape:version="0.91 r13725"
   sodipodi:docname="drawing.svg">
  <defs
     id="defs4">
    <linearGradient
       inkscape:collect="always"
       id="linearGradient5910">
      <stop
         style="stop-color:#e349e3;stop-opacity:1;"
         offset="0"
         id="stop5912" />
      <stop
         style="stop-color:#e349e3;stop-opacity:0;"
         offset="1"
         id="stop5914" />
    </linearGradient>
    <linearGradient
       inkscape:collect="always"
       id="linearGradient5864"
       osb:paint="gradient">
      <stop
         style="stop-color:#e349e3;stop-opacity:1;"
         offset="0"
         id="stop5866" />
      <stop
         style="stop-color:#e349e3;stop-opacity:0;"
         offset="1"
         id="stop5868" />
    </linearGradient>
    <linearGradient
       id="linearGradient5848"
       osb:paint="solid">
      <stop
         style="stop-color:#0f0f0d;stop-opacity:1;"
         offset="0"
         id="stop5850" />
    </linearGradient>
    <linearGradient
       id="linearGradient5634"
       osb:paint="solid">
      <stop
         style="stop-color:#d800dd;stop-opacity:1;"
         offset="0"
         id="stop5636" />
    </linearGradient>
    <linearGradient
       inkscape:collect="always"
       id="linearGradient4178"
       osb:paint="gradient">
      <stop
         style="stop-color:#0f0000;stop-opacity:1;"
         offset="0"
         id="stop4180" />
      <stop
         style="stop-color:#0f0000;stop-opacity:0;"
         offset="1"
         id="stop4182" />
    </linearGradient>
    <inkscape:perspective
       sodipodi:type="inkscape:persp3d"
       inkscape:vp_x="1084.6931 : 1026.1638 : 1"
       inkscape:vp_y="0 : 761.44745 : 0"
       inkscape:vp_z="12282.373 : 671.70105 : 1"
       inkscape:persp3d-origin="6100.5657 : 538.14797 : 1"
       id="perspective3565" />
    <linearGradient
       inkscape:collect="always"
       xlink:href="#linearGradient5910"
       id="linearGradient5958"
       gradientUnits="userSpaceOnUse"
       x1="-14.163042"
       y1="233.79726"
       x2="748.59149"
       y2="233.79726" />
    <linearGradient
       inkscape:collect="always"
       xlink:href="#linearGradient5910"
       id="linearGradient5960"
       gradientUnits="userSpaceOnUse"
       x1="-14.163042"
       y1="233.79726"
       x2="748.59149"
       y2="233.79726" />
    <linearGradient
       inkscape:collect="always"
       xlink:href="#linearGradient5910"
       id="linearGradient5962"
       gradientUnits="userSpaceOnUse"
       x1="-14.163042"
       y1="233.79726"
       x2="748.59149"
       y2="233.79726" />
    <linearGradient
       inkscape:collect="always"
       xlink:href="#linearGradient5910"
       id="linearGradient5964"
       gradientUnits="userSpaceOnUse"
       x1="-14.163042"
       y1="233.79726"
       x2="748.59149"
       y2="233.79726" />
    <linearGradient
       inkscape:collect="always"
       xlink:href="#linearGradient5910"
       id="linearGradient5966"
       gradientUnits="userSpaceOnUse"
       x1="-14.163042"
       y1="233.79726"
       x2="748.59149"
       y2="233.79726" />
    <linearGradient
       inkscape:collect="always"
       xlink:href="#linearGradient5910"
       id="linearGradient5968"
       gradientUnits="userSpaceOnUse"
       x1="-14.163042"
       y1="233.79726"
       x2="748.59149"
       y2="233.79726" />
    <linearGradient
       inkscape:collect="always"
       xlink:href="#linearGradient5910"
       id="linearGradient5970"
       gradientUnits="userSpaceOnUse"
       x1="-14.163042"
       y1="233.79726"
       x2="748.59149"
       y2="233.79726" />
  </defs>
  <sodipodi:namedview
     id="base"
     pagecolor="#ffffff"
     bordercolor="#666666"
     borderopacity="1.0"
     inkscape:pageopacity="0.0"
     inkscape:pageshadow="2"
     inkscape:zoom="0.49497475"
     inkscape:cx="181.6995"
     inkscape:cy="547.7433"
     inkscape:document-units="px"
     inkscape:current-layer="layer3"
     showgrid="false"
     inkscape:window-width="1440"
     inkscape:window-height="791"
     inkscape:window-x="0"
     inkscape:window-y="1"
     inkscape:window-maximized="1">
    <inkscape:grid
       type="xygrid"
       id="grid3364" />
  </sodipodi:namedview>
  <metadata
     id="metadata7">
    <rdf:RDF>
      <cc:Work
         rdf:about="">
        <dc:format>image/svg+xml</dc:format>
        <dc:type
           rdf:resource="http://purl.org/dc/dcmitype/StillImage" />
      </cc:Work>
    </rdf:RDF>
  </metadata>
  <g
     inkscape:groupmode="layer"
     id="layer3"
     inkscape:label="Layer -1"
     style="display:inline">
    <rect
       style="display:inline;fill:#9d1cfd;fill-opacity:1;fill-rule:evenodd;stroke:#000000;stroke-width:1.0419215px;stroke-linecap:butt;stroke-linejoin:miter;stroke-opacity:1"
       id="rect3615"
       width="759.95807"
       height="839.95801"
       x="-11.999355"
       y="63.279472" />
    <g
       id="g5776"
       style="opacity:1;fill:url(#linearGradient5970);fill-opacity:1;stroke:#0f0d0f;stroke-linejoin:bevel;stroke-opacity:0.96794876"
       transform="matrix(0.9946771,0,0,1.1045465,1.9546421,20.004021)">
      <path
         d="M 213.5677,119.47198 748.09151,62.239193 665.13695,59.949102 -13.663042,114.55433 Z"
         style="fill:url(#linearGradient5958);fill-opacity:1;fill-rule:evenodd;stroke:#0f0d0f;stroke-width:1px;stroke-linecap:butt;stroke-linejoin:round;stroke-opacity:0.96794876"
         id="path5820"
         inkscape:connector-curvature="0" />
      <path
         d="m 213.5677,407.14672 534.52381,-233.75042 0,-111.157107 -534.52381,57.232787 z"
         style="fill:url(#linearGradient5960);fill-opacity:1;fill-rule:evenodd;stroke:#0f0d0f;stroke-width:1px;stroke-linecap:butt;stroke-linejoin:round;stroke-opacity:0.96794876"
         id="path5822"
         inkscape:connector-curvature="0" />
      <path
         d="m 213.5677,407.14672 0,-287.67474 -227.230742,-4.91765 0,293.09106 z"
         style="fill:url(#linearGradient5962);fill-opacity:1;fill-rule:evenodd;stroke:#0f0d0f;stroke-width:1px;stroke-linecap:butt;stroke-linejoin:round;stroke-opacity:0.96794876"
         id="path5824"
         inkscape:connector-curvature="0" />
      <path
         d="M 213.5677,407.14672 748.09151,173.3963 665.13695,171.90565 -13.663042,407.64539 Z"
         style="fill:url(#linearGradient5964);fill-opacity:1;fill-rule:evenodd;stroke:#0f0d0f;stroke-width:1px;stroke-linecap:butt;stroke-linejoin:round;stroke-opacity:0.96794876"
         id="path5826"
         inkscape:connector-curvature="0" />
      <path
         d="m -13.663042,407.64539 678.799992,-235.73974 0,-111.956548 -678.799992,54.605228 z"
         style="fill:url(#linearGradient5966);fill-opacity:1;fill-rule:evenodd;stroke:#0f0d0f;stroke-width:1px;stroke-linecap:butt;stroke-linejoin:round;stroke-opacity:0.96794876"
         id="path5828"
         inkscape:connector-curvature="0" />
      <path
         d="m 748.09151,173.3963 0,-111.157107 -82.95456,-2.290091 0,111.956548 z"
         style="fill:url(#linearGradient5968);fill-opacity:1;fill-rule:evenodd;stroke:#0f0d0f;stroke-width:1px;stroke-linecap:butt;stroke-linejoin:round;stroke-opacity:0.96794876"
         id="path5830"
         inkscape:connector-curvature="0" />
    </g>
    <use
       id="use5972"
       xlink:href="#g5776"
       x="0"
       y="0"
       width="100%"
       height="100%"
       transform="translate(1.6287644,247.81515)" />
    <use
       id="use5974"
       xlink:href="#g5776"
       x="0"
       y="0"
       width="100%"
       height="100%"
       transform="translate(0.84415669,495.85526)" />
  </g>
  <g
     inkscape:label="Layer 1"
     inkscape:groupmode="layer"
     id="layer1">
    <path
       style="fill:#000000;fill-opacity:1;fill-rule:nonzero;stroke:none;stroke-width:1px;stroke-linecap:butt;stroke-linejoin:miter;stroke-opacity:1"
       id="path3372"
       d="m 293.76268,245.89539 c -0.85099,-0.0941 -1.70871,-0.14351 -2.55295,-0.2822 -6.45559,-1.0605 -0.78805,-0.49702 -7.52162,-1.26283 -5.22167,-0.59386 -10.46737,-0.80685 -15.71649,-1.03732 -2.0619,0.0791 -4.13336,0.0324 -6.1857,0.23726 -5.48658,0.54783 -7.53555,1.08133 -12.51969,3.4439 -1.94794,0.92336 -7.67936,3.83327 -5.62149,3.16069 14.67091,-4.79495 17.44804,-10.83656 8.55096,0.92587 -1.3948,2.81956 -3.03358,5.54074 -4.1844,8.45868 -2.81376,7.13436 -4.49932,15.10689 -5.7159,22.5908 -1.46435,9.00807 -2.42977,18.05064 -2.08694,27.18675 0.17677,4.711 0.9636,9.38317 1.44539,14.07475 3.71467,21.52398 11.58873,42.65954 25.83358,59.99182 2.30112,2.79986 4.99067,5.28874 7.486,7.9331 10.62523,8.9527 23.2885,17.65172 37.90477,19.005 2.21133,0.20474 4.44332,-0.032 6.66498,-0.0479 2.06259,-0.42404 4.17636,-0.66437 6.18775,-1.27212 1.93147,-0.58361 7.33388,-3.26199 5.58581,-2.28533 -4.64344,2.59433 -9.18346,5.55302 -14.29737,7.15256 -1.95285,0.61082 3.10642,-2.58647 4.44709,-4.07156 3.56852,-3.9529 4.45441,-6.28188 6.96258,-10.91792 3.32928,-7.24427 4.78917,-15.02903 5.79462,-22.83015 0.38018,-2.94975 0.79531,-5.90463 0.89245,-8.87511 0.24622,-7.52905 -0.60405,-11.72973 -1.55898,-19.25005 -3.78253,-19.92283 -13.38032,-37.93943 -23.84526,-55.32164 -6.36743,-9.81243 -12.97592,-19.61053 -21.06431,-28.23528 -2.21908,-2.39959 -1.21361,-1.22589 -3.04389,-3.49953 0,0 20.08459,-11.33533 20.08459,-11.33533 l 0,0 c 1.62808,2.22299 0.72261,1.04819 2.74566,3.50374 7.55374,9.17718 14.16381,19.02866 20.27904,29.12373 10.46391,17.69617 20.00987,35.97728 24.13323,56.09371 1.05693,7.27282 2.08782,12.23372 1.969,19.56567 -0.0485,2.9932 -0.47511,5.9709 -0.80878,8.94751 -0.88556,7.89967 -1.98248,15.86109 -5.13732,23.27871 -2.24116,4.58307 -3.32417,7.4671 -6.55107,11.49584 -7.12885,8.90029 -18.93592,13.28271 -28.78322,18.47659 -1.7939,0.94618 -3.81592,1.46817 -5.80863,1.92765 -2.09729,0.48359 -4.27053,0.59251 -6.4058,0.88876 -2.27558,-0.11501 -4.573,-0.024 -6.82675,-0.34502 -14.80636,-2.10907 -27.41968,-11.04702 -38.05675,-20.49392 -2.49627,-2.74536 -5.182,-5.34401 -7.48881,-8.23607 -14.17708,-17.77375 -21.86342,-39.3298 -25.90585,-61.09763 -0.53363,-4.75765 -1.36239,-9.49359 -1.60087,-14.27296 -0.46786,-9.37629 0.34735,-18.06523 1.6474,-27.33147 1.01528,-7.23653 2.56158,-15.81252 4.99051,-22.81764 1.03723,-2.99142 2.55544,-5.81124 3.83317,-8.71686 1.56756,-2.34379 2.44723,-5.26977 4.70269,-7.03138 6.5387,-5.10699 24.81926,-18.09991 36.84938,-20.80904 4.49504,-1.01226 8.32008,-0.87626 12.87988,-0.97782 8.90363,0.35356 17.72787,1.10691 26.54759,2.28489 0,0 -19.12928,12.90611 -19.12928,12.90611 z"
       inkscape:connector-curvature="0" />
    <path
       style="fill:#000000;fill-opacity:1;fill-rule:nonzero;stroke:none;stroke-width:1px;stroke-linecap:butt;stroke-linejoin:miter;stroke-opacity:1"
       id="path3374"
       d="m 352.23688,342.51729 c 0.81577,13.10587 1.76957,26.20087 2.73671,39.29674 0.73029,9.22757 1.0627,18.48008 1.68664,27.71326 1.66917,7.73806 0.91785,3.09458 -20.16181,10.14461 -0.88155,0.29483 0.14789,-1.79711 0.19055,-2.69739 0.0706,-1.49088 0.13522,-2.98263 0.14934,-4.47501 0.0111,-1.17589 -0.14401,-13.70148 -0.14413,-13.71154 -0.7852,-25.45885 -1.30455,-50.92484 -1.7933,-76.39037 -0.2032,-14.14306 -0.63339,-28.41132 1.15559,-42.49108 0.60496,-4.76116 1.34975,-7.62357 2.37816,-12.19979 1.39987,-3.7386 1.39325,-4.44699 3.58608,-7.6741 0.69437,-1.02188 2.96876,-3.80653 4.20299,-4.53286 20.30367,-11.94839 13.81676,-10.07191 24.25816,-12.71021 0.91956,0.0346 1.86697,-0.11601 2.75866,0.10375 8.14437,2.00725 12.08641,14.56212 14.66039,20.9132 7.25808,19.31733 12.7797,39.22932 17.6003,59.23157 3.69228,14.58237 7.13346,29.21922 10.06685,43.96021 1.0029,4.6942 2.42296,9.28613 3.58744,13.94038 2.44287,7.18993 1.04385,2.51151 -19.912,9.2502 -0.76945,0.24743 0.12528,-1.56236 0.16695,-2.34475 0.0713,-1.33699 0.12564,-2.67484 0.17169,-4.01287 0.16009,-4.65214 0.25048,-9.50547 0.35365,-14.13698 0.62421,-25.28413 0.13757,-50.57787 0.72278,-75.86007 0.84715,-14.7362 0.93267,-31.71419 8.73383,-44.96559 0.87825,-1.49183 2.04004,-2.81028 3.06007,-4.21543 8.35143,-7.82523 7.57895,-7.60396 25.53964,-15.21042 1.24892,-0.52893 2.79685,0.36179 3.93162,1.09234 6.44529,4.14947 9.84174,14.51104 12.46992,20.81302 10.49053,28.82354 17.80316,58.62268 25.59392,88.20475 4.05847,17.26778 8.74171,34.39363 12.9676,51.62147 8.27993,33.75506 -3.24713,-11.95933 3.95305,16.45101 2.16291,6.54091 2.90965,13.71563 5.96126,19.97789 0.5494,1.15824 0.30999,0.63036 0.72778,1.57962 0,0 -19.98227,10.68525 -19.98227,10.68525 l 0,0 c -0.26536,-0.90174 -0.10394,-0.39377 -0.50472,-1.51774 -2.84746,-6.59607 -3.1179,-14.05598 -5.16124,-20.87656 -1.18282,-5.56327 -2.19875,-11.1589 -3.38653,-16.72119 -3.71555,-17.39955 -8.05558,-34.68146 -12.24205,-51.97777 -7.28271,-29.53398 -14.85831,-59.1381 -26.19689,-87.50782 -2.87126,-5.99924 -4.38582,-10.55129 -8.77829,-15.46359 -1.03614,-1.15876 -2.24666,-2.26589 -3.69143,-2.89564 -0.94536,-0.41207 -3.93266,0.5416 -3.1106,-0.0693 3.67144,-2.72821 23.64061,-14.62842 12.11612,-6.57302 -1.14098,1.31754 -2.43083,2.52704 -3.42293,3.95262 -8.66691,12.45386 -9.32969,30.27265 -10.28083,44.66923 -0.81007,25.1276 -0.33014,50.27013 0.0834,75.40294 0.16285,6.92013 0.16837,7.52449 0.34398,13.81076 0.0364,1.3054 0.0826,2.61054 0.11602,3.91602 0.0202,0.78978 0.71098,1.91149 0.0448,2.36967 -6.40174,4.40283 -13.43052,7.89442 -20.3083,11.56667 -0.20045,0.10703 -0.0912,-0.43364 -0.13671,-0.65046 -0.814,-4.80589 -2.15612,-9.5135 -2.983,-14.31884 -2.39925,-14.89766 -5.48524,-29.6701 -9.04126,-44.35389 -4.84166,-19.85751 -10.17296,-39.67035 -17.90241,-58.69086 -2.41566,-5.32514 -5.6513,-14.73361 -11.62512,-17.62161 -1.93633,-0.93613 -2.85234,-0.5049 -4.83028,-0.2151 -8.13208,3.10515 -5.19081,2.12468 14.31485,-8.71767 0.82879,-0.46069 -1.59934,1.02352 -2.31661,1.63439 -3.04481,2.5932 -5.08333,5.89939 -6.54887,9.52679 -0.96264,3.62617 -2.34734,8.55399 -2.95961,12.17715 -2.38054,14.08706 -2.25665,28.47316 -2.12648,42.69147 0.33221,25.31213 0.8657,50.62761 2.73751,75.88587 0.32497,5.94245 0.60947,11.88249 0.88995,17.826 0.0406,0.86087 0.91608,2.09622 0.17757,2.57959 -6.3836,4.17816 -13.44838,7.30406 -20.35086,10.62416 -0.27186,0.13076 0.0567,-0.58419 0.085,-0.87628 0.12615,-9.35271 -0.30988,-18.7074 -0.81956,-28.04437 -0.8551,-12.99109 -1.74796,-26.00354 -3.50697,-38.9132 0,0 19.94428,-9.97925 19.94428,-9.97925 z"
       inkscape:connector-curvature="0" />
    <path
       style="fill:#000000;fill-opacity:1;fill-rule:nonzero;stroke:none;stroke-width:1px;stroke-linecap:butt;stroke-linejoin:miter;stroke-opacity:1"
       id="path3380"
       d="m 347.97972,479.27726 c -0.63109,9.73765 -0.0773,19.44798 0.68822,29.1549 1.03639,8.83977 2.23314,17.65732 3.03556,26.52289 0.34248,4.16251 0.44048,8.33677 0.63151,12.50677 0,0 -18.90514,9.65022 -18.90514,9.65022 l 0,0 c 0.12568,-4.18558 -0.0128,-8.37883 -0.2161,-12.55934 -0.54494,-8.93727 -1.58204,-17.82572 -2.63146,-26.71582 -0.84227,-9.64812 -1.35848,-19.28556 -1.41917,-28.97209 0,0 18.81658,-9.58753 18.81658,-9.58753 z"
       inkscape:connector-curvature="0" />
    <path
       style="fill:#000000;fill-opacity:1;fill-rule:nonzero;stroke:none;stroke-width:1px;stroke-linecap:butt;stroke-linejoin:miter;stroke-opacity:1"
       id="path3382"
       d="m 348.46775,444.81858 c 2.02446,1.77888 3.7914,3.76579 6.08278,5.21112 6.95091,4.10447 4.7257,-0.89275 -17.58514,11.12695 -0.34076,0.18358 -2.45892,-0.66314 -2.83944,-0.74436 -2.73497,-0.13306 -5.72585,-0.92472 -8.39703,-0.11316 5.83748,-3.21384 11.66716,-6.44187 17.51244,-9.64151 0.26156,-0.14318 -0.52899,0.28324 -0.76021,0.47154 -0.755,0.61485 -1.08491,1.50777 -1.3426,2.41051 0.58654,0.99153 2.55191,1.06791 3.61524,1.12027 0.96974,0.067 0.58976,0.23241 1.19617,-0.33877 -5.98184,3.3549 -11.97018,6.69824 -17.94553,10.0647 -0.0267,0.0151 0.50098,-0.17745 0.89392,-0.8522 0,0 19.20159,-9.27484 19.20159,-9.27484 l 0,0 c -0.28155,8.55499 -12.60805,14.57239 -20.72426,12.63112 -2.18026,-0.51604 -4.26466,-1.35738 -5.16093,-3.59287 -1.67691,-9.22795 19.62465,-15.2692 20.51449,-15.71088 2.97154,7.9e-4 5.97716,0.18351 8.88134,0.8357 0.19261,0.065 4.02046,1.65961 3.68873,1.91657 -15.9439,12.35058 -12.08674,15.86671 -18.66257,11.12928 -2.25246,-1.66836 -4.0779,-3.80233 -6.25282,-5.56739 0,0 18.08383,-11.08178 18.08383,-11.08178 z"
       inkscape:connector-curvature="0" />
    <path
       style="fill:#000000;fill-opacity:1;fill-rule:nonzero;stroke:none;stroke-width:1px;stroke-linecap:butt;stroke-linejoin:miter;stroke-opacity:1"
       id="path3384"
       d="m 390.87833,491.60064 c -0.15899,5.53754 -0.15932,11.07852 -0.17038,16.61794 0.003,6.33985 -0.0157,12.67941 0.0425,19.01906 0.009,4.20548 0.035,8.41183 0.10548,12.61686 0.009,0.37724 0.02,0.75444 0.0265,1.13173 0.01,0.57293 0.0866,1.8598 0.074,1.86581 -19.29264,9.2282 -18.50574,15.82529 -19.0796,7.86966 -0.58493,-3.68466 -1.119,-7.36591 -1.29435,-11.09429 -0.0921,-5.69194 0.0185,-11.3852 0.0588,-17.07737 -0.0318,-5.28011 -0.12879,-10.53348 0.72576,-15.75648 0.77446,-4.48958 3.2047,-7.87372 6.46637,-10.89677 10.76422,-8.69949 18.15449,-13.36183 30.2893,-14.08553 2.37241,0.16337 4.88808,-0.41409 7.24984,-0.0367 1.47681,0.23597 2.37751,0.87147 3.68857,1.56832 5.42869,4.87911 7.71319,12.26343 10.17899,18.9274 2.93516,7.61677 5.52215,15.35505 8.45159,22.97321 1.37144,3.51521 2.68176,7.07454 4.6765,10.29275 0.44576,1.23674 1.21137,2.2458 1.80657,3.33968 0.80929,0.99836 1.57929,1.98156 2.02605,3.19161 0,0 -18.69356,10.25922 -18.69356,10.25922 l 0,0 c -0.22635,-1.10715 -1.2675,-1.88446 -1.81986,-2.82978 -0.61864,-1.09731 -1.35131,-2.09836 -1.71587,-3.33768 -1.86608,-3.44862 -3.15833,-7.12654 -4.50303,-10.80354 -2.72762,-7.70378 -5.26741,-15.47267 -8.26295,-23.07905 -2.1287,-5.79675 -4.60948,-13.42898 -9.69258,-17.28819 -3.33306,-1.21054 -6.82793,-0.85518 -10.32636,-0.66203 -2.08339,0.2152 -4.146,0.43516 -6.13437,1.14762 -0.66008,0.23652 -2.52559,1.20975 -1.92524,0.8475 9.7923,-5.9087 22.17441,-12.77137 14.21323,-8.34821 -3.23893,2.64785 -6.10496,5.36773 -7.0762,9.62366 -1.06406,5.10869 -1.09651,10.28294 -1.01482,15.48689 -0.0327,5.64085 -0.0988,11.28291 0.009,16.92319 0.15083,3.641 0.67669,7.22018 1.37991,10.79534 1.79401,8.31653 0.68886,1.25454 -18.73783,11.759 -0.0733,0.0396 0.0289,-0.16445 0.0346,-0.24758 0.0422,-0.61087 0.0286,-1.05767 0.0394,-1.69366 0.007,-0.38628 0.0177,-0.77247 0.0265,-1.15871 0.0699,-4.24088 0.0967,-8.48304 0.10548,-12.72436 0.0579,-6.3541 0.0399,-12.7081 0.0425,-19.0624 -0.011,-5.48154 -0.01,-10.96472 -0.17038,-16.44432 0,0 18.89951,-9.62978 18.89951,-9.62978 z"
       inkscape:connector-curvature="0" />
    <path
       style="fill:#000000;fill-opacity:1;fill-rule:nonzero;stroke:none;stroke-width:1px;stroke-linecap:butt;stroke-linejoin:miter;stroke-opacity:1"
       id="path3386"
       d="m 122.46411,624.35587 c -0.005,-1.18356 0.12245,-2.37618 -0.0153,-3.55065 -1.33849,-11.41655 -7.38511,-22.54487 -12.52942,-32.39163 -7.70681,-12.56876 -16.560051,-24.61499 -28.101166,-33.46184 -1.952875,-1.49698 -4.051615,-2.76616 -6.077422,-4.14925 -6.058094,-3.11943 -13.338734,-7.98802 -20.457613,-6.13405 -1.340358,0.34908 -4.99262,2.49776 -3.774366,1.80853 5.047304,-2.85549 10.178318,-5.54047 15.267478,-8.3107 -1.035712,1.45605 -2.208783,2.81239 -3.107131,4.36817 -6.419694,11.11776 -7.205473,25.16764 -8.338045,37.795 -1.010548,10.63595 -0.577665,21.36764 2.370411,31.63703 1.631997,5.68493 2.51711,7.20914 4.851645,12.48003 4.310573,8.03604 10.956631,14.27673 19.31789,17.12345 1.57042,0.53467 3.199588,0.84994 4.79938,1.27492 11.250357,2.0583 22.727529,1.80996 34.102509,1.83228 9.62557,-0.0543 19.34519,-0.48778 28.77692,2.03274 6.58928,1.76091 8.87027,3.21827 14.98265,6.18142 5.35839,3.47444 8.12274,4.70582 12.40643,9.70873 8.82285,10.30425 12.63944,23.23103 16.14288,36.28868 0.62377,3.24817 1.4852,6.45486 1.87131,9.74453 1.65129,14.06862 -0.29224,28.69611 -6.32631,41.40778 -1.58369,3.33628 -3.66127,6.38047 -5.49191,9.5707 -2.25108,2.92711 -4.31831,6.02562 -6.75325,8.78134 -4.3862,4.96402 -11.96966,11.79199 -17.39536,15.30665 -13.43614,8.70366 -25.75246,16.60441 -40.10223,22.56879 -3.92488,1.63135 -7.97308,2.90505 -11.95961,4.35758 -12.678922,3.59536 -25.596414,6.10618 -38.619665,7.76408 -8.405106,1.07001 -14.184009,1.68035 -22.570061,1.48504 -3.091739,-0.072 -6.169639,-0.46257 -9.254458,-0.69386 -9.63914,-1.83969 -20.372892,-4.39731 -26.9363054,-12.8676 -0.7659114,-0.98843 -1.3342008,-2.13267 -2.0013011,-3.199 -1.796729,-3.82925 -3.2791872,-7.97623 -2.7523509,-12.31131 0.3981685,-0.92256 0.4864171,-2.12072 0.9304422,-3.02051 0.2084672,-0.42243 0.6004472,-0.71065 0.8703822,-1.09171 6.098428,-5.56831 13.507566,-14.87709 21.710051,-13.00785 1.004302,0.83986 1.13963,-0.70562 0.82961,-0.52601 -6.35843,3.68383 -12.507258,7.76269 -18.760887,11.64403 0,0 20.85703,-9.00014 20.85703,-9.00014 l 0,0 c -6.543004,4.14784 -13.086008,8.29568 -19.629011,12.44351 -0.626965,-0.35567 -0.768257,-0.49084 -1.411433,-0.23432 -0.1982054,0.17913 -0.07482,0.0866 -0.3885056,0.24746 6.2938216,-3.84779 12.5876416,-7.6956 18.8814636,-11.5434 0.142928,-0.0893 -0.356352,-0.0438 -0.494851,0.0531 -0.01513,0.0101 -0.673072,1.00391 -0.706797,1.05468 -2.68415,1.00444 1.284226,-0.60978 -0.982966,0.72946 -0.156355,0.0923 -0.387563,-0.0711 -0.535544,0.0357 -0.592072,0.42739 -0.157646,1.63713 -0.908715,1.96351 -1.578065,3.42878 0.277068,7.53022 1.483653,10.76351 0.56713,0.95333 1.041867,1.9764 1.701393,2.85997 6.012332,8.05478 16.319421,10.35201 25.28889,12.03808 2.975039,0.23186 5.942868,0.62343 8.925117,0.69561 8.074292,0.19543 14.056891,-0.42804 22.142661,-1.4721 12.958921,-1.67328 25.831948,-4.16733 38.367418,-8.09432 3.93674,-1.4889 7.93838,-2.79644 11.8102,-4.46669 3.98894,-1.72078 7.53712,-4.75791 11.7503,-5.69698 2.56887,-0.57258 -8.58646,6.38619 -6.60909,4.55105 2.88065,-2.67343 6.34552,-4.55284 9.33798,-7.08363 7.98553,-6.75357 8.3808,-8.01776 14.92473,-16.14388 1.8534,-3.06775 3.94719,-5.98561 5.56015,-9.20324 7.73711,-15.43425 8.80607,-32.99798 5.0165,-49.7961 -0.84437,-3.2415 -1.53323,-6.5334 -2.53311,-9.72451 -3.64047,-11.6184 -9.31093,-23.02579 -18.86831,-30.32697 -2.03858,-1.55733 -4.31423,-2.72985 -6.47135,-4.09477 -6.23394,-2.91932 -7.93779,-4.09926 -14.68152,-5.69288 -9.46194,-2.236 -19.17228,-1.59652 -28.77416,-1.58341 -11.557989,0.0155 -23.24845,0.29993 -34.631105,-2.17164 -1.661444,-0.50696 -3.359717,-0.89334 -4.984329,-1.52089 -8.715621,-3.36668 -15.47489,-10.17571 -19.952311,-18.69693 -2.328187,-5.40844 -3.265004,-7.12256 -4.922642,-12.92315 -3.008506,-10.52769 -3.476685,-21.51546 -2.501945,-32.42425 1.188788,-14.90189 2.153938,-30.65435 10.163363,-43.45902 0.734446,-0.4871 17.832672,-14.97096 26.323515,-15.85252 7.440837,-0.77254 14.55455,3.97188 20.751092,7.55967 2.024159,1.47099 4.117734,2.8394 6.072474,4.41295 11.524768,9.27731 20.594958,21.40667 28.378388,34.24893 5.6806,10.27546 11.50526,21.01047 13.88641,32.81542 0.23229,1.15159 0.23027,2.3428 0.3454,3.51421 0,0 -19.88631,10.77336 -19.88631,10.77336 z"
       inkscape:connector-curvature="0" />
    <path
       style="fill:#000000;fill-opacity:1;fill-rule:nonzero;stroke:none;stroke-width:1px;stroke-linecap:butt;stroke-linejoin:miter;stroke-opacity:1"
       id="path3390"
       d="m 310.25156,630.17206 c -0.55299,10.35948 -0.57544,20.72898 -0.66656,31.09417 -0.22279,16.69568 -0.3299,33.38156 0.45794,50.07014 0.7243,13.65759 2.82778,27.23846 4.86727,40.8217 0.65266,6.47891 2.28778,12.87757 3.88613,19.26866 0.10756,0.50341 0.21519,1.00682 0.32278,1.51021 0,0 -30.89434,11.20464 -30.89434,11.20464 l 0,0 c -0.074,-0.49735 -0.14791,-0.99469 -0.22182,-1.49202 -1.13373,-6.54865 -2.63397,-13.07408 -3.15393,-19.66628 -1.744,-13.72968 -3.36391,-27.45964 -4.17875,-41.23519 -0.7092,-16.66439 -0.88572,-33.32855 -0.88203,-50.00019 -0.0903,-10.20885 -0.10674,-20.42235 -0.66658,-30.62522 0,0 31.12989,-10.95062 31.12989,-10.95062 z"
       inkscape:connector-curvature="0" />
    <path
       style="fill:#000000;fill-opacity:1;fill-rule:nonzero;stroke:none;stroke-width:1px;stroke-linecap:butt;stroke-linejoin:miter;stroke-opacity:1"
       id="path3392"
       d="m 281.55163,621.00135 c -1.37663,-0.79083 -2.99392,-1.84435 -4.65926,-1.47529 -0.3827,0.0848 -0.69692,0.37543 -1.04538,0.56313 -0.26817,0.22566 -1.1031,0.85475 -0.80451,0.67696 7.07786,-4.21432 14.10213,-8.52869 21.1532,-12.79305 -1.44696,-0.17024 2.44391,0.34228 2.69025,0.36728 1.07496,0.0114 2.25471,0.49731 3.21969,-0.24905 0.28043,-0.2169 0.99299,-1.00562 0.68952,-0.8268 -20.25185,11.93344 -26.91809,18.73215 -20.36256,12.14759 1.1611,-1.53326 1.30265,-3.55826 1.39912,-5.45153 -1.12047,-9.21696 23.1038,-22.88664 22.80522,-12.43069 -0.007,1.04653 -0.007,0.54205 -0.002,1.51342 0,0 -22.82398,12.29042 -22.82398,12.29042 l 0,0 c 0.0155,-0.98798 0.01,-0.47586 0.0172,-1.53638 -0.0862,-10.06317 24.22354,-23.48272 22.84139,-12.02998 -0.0602,2.30495 -0.21036,4.62945 -0.81076,6.85794 -4.73723,10.4169 -17.33632,17.24161 -27.83234,15.21043 -2.99064,-0.71136 -5.21878,-2.08333 -5.48232,-5.61874 14.82686,-9.30838 18.26616,-19.05941 30.44994,-11.74576 0,0 -21.44247,14.5301 -21.44247,14.5301 z"
       inkscape:connector-curvature="0" />
    <path
       style="fill:#000000;fill-opacity:1;fill-rule:nonzero;stroke:none;stroke-width:1px;stroke-linecap:butt;stroke-linejoin:miter;stroke-opacity:1"
       id="path3396"
       d="m 335.1415,668.98982 c 7.69193,-0.17658 15.5554,0.9855 23.17674,-0.42139 2.09287,-0.38634 4.11453,-1.06501 6.17181,-1.59752 2.01446,-0.75045 4.08102,-1.38447 6.04338,-2.25135 2.04631,-0.90397 7.9278,-4.1036 5.96087,-3.05161 -4.6966,2.51195 -9.27589,5.24965 -14.15049,7.43177 -1.81935,0.81444 3.32876,-2.15137 4.93311,-3.30559 4.59536,-3.30607 4.64876,-3.5791 8.65231,-7.29204 5.78983,-5.89457 8.88661,-13.25559 10.55209,-21.04913 0.37717,-3.64422 -0.52032,-7.34208 -3.51484,-9.88353 -0.73055,-0.62002 -5.27019,-3.08629 -5.95247,-3.46573 -6.01671,-2.07307 -13.57519,-4.18651 -19.9363,-2.39342 -1.54062,0.43427 -2.95777,1.19664 -4.43666,1.79495 4.99608,-2.58334 9.57597,-6.09565 14.98825,-7.75002 2.25553,-0.68945 -3.57101,2.99396 -5.09191,4.72501 -1.809,2.05896 -3.48061,4.25091 -4.85445,6.59569 -5.77975,9.86443 -7.83955,20.79719 -10.12675,31.71856 -3.34989,18.34027 -3.51641,36.98052 0.0464,55.3088 2.01328,10.35706 3.54932,13.54454 7.0349,23.29387 5.49771,13.0517 12.50927,26.36149 24.71203,34.90343 1.60808,1.12565 3.40646,1.98065 5.1097,2.97098 5.27663,2.39727 11.46736,4.46065 17.3169,2.50837 1.47832,-0.49338 4.48837,-2.41405 5.81347,-3.21678 -31.73853,17.10659 -19.52542,11.92863 -13.96768,6.27769 1.07066,-1.08862 2.03477,-2.2781 3.10199,-3.37362 0.30259,-0.65271 1.29091,-1.29718 1.57389,-1.93077 1.19766,-2.68152 -1.27044,1.42826 0.59198,-1.50236 1.08542,-1.50278 1.84883,-3.10154 2.60336,-4.80129 0.99748,-2.40243 2.06007,-4.7291 3.44756,-6.95974 0.67698,-1.21901 1.20911,-2.43524 2.13758,-3.50857 0,0 22.00969,-9.15477 22.00969,-9.15477 l 0,0 c -0.7429,1.23615 -2.11424,1.85823 -2.24074,3.42512 -1.4439,2.19933 -3.02438,4.24369 -3.52127,6.85015 -0.97535,1.35121 -0.7832,2.53799 -1.23797,3.21799 -0.13705,0.20491 -0.60416,-0.0339 -0.74387,0.16935 -0.32118,0.46731 0.22999,1.24869 -0.43318,1.62435 -0.16598,0.19542 -0.29217,0.42891 -0.4979,0.58626 -0.11625,0.0889 -0.37842,-0.0116 -0.42839,0.12224 -0.10852,0.29071 0.0931,0.621 0.0376,0.92499 -0.11247,0.61602 -1.50786,1.357 -1.25072,2.0578 -2.48505,2.90096 1.00163,-1.07559 -2.09071,2.0992 -0.98,1.00614 -1.69553,2.23222 -2.70291,3.21347 -6.80482,6.62838 -20.9306,5.93872 -24.7136,14.80226 -2.33205,1.14781 -3.6819,2.00697 -6.33692,2.48437 -6.26298,1.12615 -12.47493,-1.28294 -17.86743,-4.02844 -1.73277,-1.11042 -3.56768,-2.08817 -5.19832,-3.33124 -12.04784,-9.18425 -19.06289,-22.92214 -24.44056,-36.34086 -3.38366,-9.87752 -4.95318,-13.35262 -6.91712,-23.80321 -3.47192,-18.47497 -3.49642,-37.25504 -0.56626,-55.7926 2.49641,-13.55196 4.75134,-27.59957 13.48366,-39.00838 1.40085,-1.83021 2.71919,-3.85229 4.68852,-5.12059 7.96645,-5.13062 16.58251,-9.27892 24.87376,-13.91837 1.61207,-0.47451 3.17875,-1.12312 4.83622,-1.42356 7.01853,-1.2722 14.53622,0.90666 20.90595,3.50956 7.21279,4.12572 11.20316,7.10229 10.90002,15.72548 -1.51998,8.18038 -4.54109,16.01226 -10.30491,22.3972 -11.91428,11.72406 -22.6175,16.51611 -38.72246,25.29014 -1.98856,1.08338 -4.0601,2.03402 -6.17274,2.8774 -2.01955,0.80622 -4.13457,1.37508 -6.20185,2.06263 -2.15047,0.46484 -4.27314,1.0679 -6.45144,1.39455 -7.90141,1.18485 -15.98605,0.16778 -23.93237,0.68118 0,0 19.30152,-13.36833 19.30152,-13.36833 z"
       inkscape:connector-curvature="0" />
    <path
       style="fill:#000000;fill-opacity:1;fill-rule:nonzero;stroke:none;stroke-width:1px;stroke-linecap:butt;stroke-linejoin:miter;stroke-opacity:1"
       id="path3398"
       d="m 449.64619,609.09934 c -0.5296,14.99663 -0.68608,30.00656 -0.86747,45.01076 -0.21232,25.03172 -0.10394,50.06518 0.0192,75.09719 -0.004,16.46489 0.28902,32.927 0.50581,49.38988 -0.0205,3.60973 0.19622,7.21799 0.64202,10.80276 0.13162,1.05839 0.20933,2.98278 0.76963,3.99698 -7.03484,3.23622 -13.9315,6.75258 -21.10453,9.70866 -0.36998,0.15247 0.21747,-0.73611 0.25065,-1.11456 0.0712,-0.81199 0.11022,-1.6301 0.0612,-2.44354 -0.31533,-5.24202 -1.36919,-10.58306 -2.04884,-15.78013 -3.33324,-21.4655 -5.03985,-43.04492 -5.9405,-64.70628 -0.0918,-13.81056 -1.30648,-27.65152 -0.4802,-41.46113 0.46769,-7.8165 0.83769,-8.71339 2.15913,-16.25363 2.54974,-12.60507 9.25809,-22.8479 18.58655,-31.96186 9.31294,-7.54421 20.90093,-12.56899 31.67599,-17.76015 1.32624,-0.63895 6.59344,-1.67122 8.06865,-1.80445 1.28095,-0.11568 2.57368,-0.007 3.86051,-0.0105 1.29436,0.32248 2.70387,0.37106 3.88309,0.96742 8.54123,4.31951 13.76293,18.23614 17.00212,26.11265 6.39045,18.16691 10.0041,37.02346 14.89559,55.55703 2.75919,12.2355 5.48401,24.48258 7.91867,36.77881 1.15478,6.30113 2.86377,12.49131 4.61917,18.66174 0.90916,2.33694 1.63787,5.27579 3.37446,7.24345 0.89,1.01353 1.60704,2.0472 2.50742,3.06002 0,0 -20.56845,11.50744 -20.56845,11.50744 l 0,0 c -0.80423,-1.0539 -1.67033,-2.04277 -2.43364,-3.12192 -1.79372,-2.33743 -2.68546,-5.43227 -3.5917,-8.13469 -1.70169,-6.28301 -3.22921,-12.61327 -4.333,-19.01729 -2.08332,-12.37843 -4.66039,-24.68798 -7.169,-36.99528 -4.61541,-18.48319 -7.97189,-37.30532 -14.88119,-55.22283 -2.98605,-6.8479 -8.39204,-20.86539 -16.50345,-23.90826 -1.11431,-0.41802 -2.37162,-0.3431 -3.55743,-0.51465 -3.7426,0.28322 -3.71615,0.10846 -7.47649,1.14491 -1.2955,0.35706 -4.93771,1.97174 -3.82389,1.25462 5.10626,-3.28761 10.63856,-5.95005 15.89266,-9.02496 1.32856,-0.77751 -2.80118,1.32638 -4.1118,2.13034 -1.37629,0.84426 -2.61845,1.86751 -3.92769,2.80127 -9.78035,8.75402 -16.6645,18.40809 -19.67299,30.98196 -1.44516,7.17224 -1.95757,8.65601 -2.55159,16.10583 -1.1011,13.80908 -0.0735,27.70015 0.004,41.52018 0.86398,21.48516 2.48666,42.9403 6.58827,64.12658 0.99095,5.183 2.10509,10.38733 2.96434,15.59276 0.14154,0.85751 0.22117,1.72361 0.29128,2.58888 0.0372,0.45939 0.44905,1.14217 0.0305,1.38186 -6.92431,3.96511 -14.27066,7.239 -21.40598,10.8585 -1.40199,-5.10408 -0.74908,-10.66606 -0.91004,-15.85656 0.2162,-16.62438 0.5091,-33.24802 0.5058,-49.87438 0.12261,-25.03814 0.23202,-50.07775 0.0192,-75.11559 -0.18012,-14.72717 -0.33245,-29.46062 -0.86747,-44.17983 0,0 21.13034,-10.12021 21.13034,-10.12021 z"
       inkscape:connector-curvature="0" />
    <path
       style="fill:#000000;fill-opacity:1;fill-rule:nonzero;stroke:none;stroke-width:1px;stroke-linecap:butt;stroke-linejoin:miter;stroke-opacity:1"
       id="path3400"
       d="m 587.20326,644.57895 c -4.97949,-6.46348 -11.56193,-11.37907 -18.35172,-15.94804 -4.81675,-2.66615 -9.9482,-5.04129 -15.40595,-6.21782 -1.12938,-0.24346 -2.28244,-0.6102 -3.43364,-0.49564 -1.14812,0.11426 -2.16418,0.77362 -3.24627,1.16042 5.57573,-2.79537 10.71847,-6.60767 16.7272,-8.38611 1.82789,-0.541 -2.46611,2.84134 -3.40796,4.44394 -1.26666,2.15528 -2.25441,4.45841 -3.1815,6.76838 -3.69902,9.21655 -5.18779,18.75587 -6.80383,28.45551 -2.16478,20.22685 -4.53262,41.19508 -3.23044,61.54353 0.2424,3.78802 0.83432,7.54778 1.2515,11.32167 2.47668,12.67914 6.99259,24.98192 16.91723,34.06868 5.37595,4.9221 7.57365,5.58123 13.94713,8.95802 10.3955,3.877 21.69839,7.15073 32.99834,6.38904 1.55996,-0.10516 3.09848,-0.40967 4.6477,-0.6145 8.31367,-1.92637 22.73609,-10.31451 -10.8267,7.27095 -0.66088,0.34627 1.25003,-0.81164 1.82522,-1.27868 1.21024,-0.98271 1.60122,-1.59525 2.55934,-2.78407 1.74074,-2.22621 2.63891,-4.88163 3.68668,-7.44483 1.02718,-2.50593 2.70096,-4.66231 4.2398,-6.88528 1.32837,-1.84066 2.45378,-3.99481 4.15202,-5.55662 0,0 21.76117,-8.79075 21.76117,-8.79075 l 0,0 c -1.97121,2.36338 0.84331,-0.85551 -1.31005,1.12726 -1.23648,1.13854 -1.8022,2.90301 -3.18037,3.93578 -1.0645,2.46379 -3.19399,4.31508 -4.27398,6.7797 -1.43655,2.52609 -1.88037,5.46282 -3.61015,7.86065 -7.18179,10.66501 -20.65168,16.62697 -33.41317,18.91585 -1.56498,0.10836 -3.12603,0.30829 -4.69496,0.32508 -11.48295,0.12284 -22.75751,-3.28144 -33.19637,-7.5775 -6.49354,-3.65781 -8.79092,-4.43428 -14.24214,-9.63559 -10.06389,-9.60253 -14.55158,-22.31288 -17.12515,-35.43854 -0.38115,-3.85204 -0.90925,-7.69321 -1.14346,-11.55613 -0.62648,-10.33311 -0.2797,-14.97311 0.12676,-25.30285 0.47862,-12.16345 1.08225,-24.32825 2.64488,-36.41733 1.41115,-9.76953 2.76733,-19.25337 5.99207,-28.65152 0.36239,-1.05613 3.73909,-10.6582 5.54187,-11.93796 7.20962,-5.11799 15.32895,-8.92645 22.99341,-13.38968 1.27335,-0.14251 2.53944,-0.48343 3.82004,-0.42754 1.20765,0.0527 2.37761,0.437 3.54231,0.74888 5.55383,1.48721 10.82015,3.94066 15.69826,6.86261 6.90128,4.78112 13.51476,9.92822 19.0855,16.15477 0,0 -20.08062,11.64626 -20.08062,11.64626 z"
       inkscape:connector-curvature="0" />
    <use
       id="use3539"
       xlink:href="#path3400"
       x="0"
       y="0"
       width="100%"
       height="100%"
       transform="matrix(1.1154003,0,0,1.0883248,-411.85022,-57.865543)"
       style="" />
    <use
       style=""
       id="use3541"
       xlink:href="#path3398"
       x="0"
       y="0"
       width="100%"
       height="100%"
       transform="matrix(1.103107,0,0,1.0710247,105.17088,-420.366)" />
    <path
       style="fill:#000000"
       id="path3633"
       d="m 302.96082,281.3344 c -2.09578,-2.48042 -3.70813,-5.37379 -5.9361,-7.73075 -0.59477,-1.36957 -1.66961,-2.26042 -2.2965,-3.26524 -0.9627,0.0382 -0.93084,-1.99501 -1.50951,-1.67683 -0.66687,-1.31033 -1.333,-1.88758 -2.1325,-3.1586 -0.43451,0.0446 -1.24933,-1.95475 -1.39114,-1.42383 -0.81394,-0.0415 -1.93962,-0.78598 -2.65572,-1.31722 -0.54479,-0.11147 -1.58334,-1.233 -2.02717,-1.73335 -0.37438,-0.8133 -0.95969,-1.4285 -1.58417,-2.04317 -0.79075,-0.33376 -1.04451,-0.93965 -1.94135,-0.5057 -0.91081,0.18395 -1.3367,-1.13696 -1.77596,-1.68698 -0.0729,-0.0913 -0.20414,0.12314 -0.31877,0.14577 -0.52079,-0.18259 -1.6593,-1.22056 -2.09315,-1.77518 0,0 18.25856,-11.05066 18.25856,-11.05066 l 0,0 c 0.57661,0.38409 1.0209,0.85357 1.66508,1.06559 0.91616,0.72688 0.75957,1.09661 1.62297,0.85319 1.06172,0.37326 1.91263,1.10516 2.78502,1.79748 0.60677,0.61353 1.12921,1.26469 1.5538,2.02154 0.66717,0.46328 1.10908,1.11367 1.86086,1.39554 0.8126,0.4682 1.72682,0.69563 2.5323,1.14295 0.75582,0.75829 1.20504,1.69051 1.99194,2.4208 0.47763,0.87376 1.18345,1.51453 1.63561,2.37872 1.01187,1.03492 0.79744,1.4588 1.91472,2.35747 0.8827,0.90444 1.39961,2.02532 2.07791,3.08539 2.02953,2.47845 3.5967,5.30801 5.8471,7.62129 0,0 -18.08383,11.08178 -18.08383,11.08178 z"
       inkscape:connector-curvature="0" />
    <path
       style="fill:#000000"
       id="path3635"
       d="m 287.15658,238.42726 c 1.3446,0.75356 3.00529,0.75349 4.40189,1.3002 1.25762,0.49231 2.19002,1.27367 3.50642,1.65936 1.51726,-0.0621 2.29903,1.71845 3.65858,1.89971 0.97836,0.51976 1.46326,1.59453 2.18459,2.40501 0.80051,0.43873 0.87307,1.49071 1.47997,2.04396 0.86354,-0.30177 0.8547,1.18468 1.57983,1.69587 1.10568,2.05778 0.65629,0.94424 1.39569,2.17552 0.38472,0.0576 0.17624,-0.0193 0.56596,0.35228 0,0 -18.1678,11.23237 -18.1678,11.23237 l 0,0 c -0.44411,-0.39082 -0.15572,-0.1258 -0.83142,-0.83029 -0.24395,-0.26722 -0.85089,-1.03155 -1.05864,-1.64725 -1.22814,-1.16207 -0.57041,-1.25421 -1.80434,-2.02659 -0.53828,-0.75984 -0.71722,-1.30905 -1.39569,-1.95138 -0.56823,-0.627 -0.9002,-1.39893 -1.74785,-1.68034 -1.09896,-0.74737 -2.15328,-1.46027 -3.46069,-1.81901 -2.60776,-1.15969 -5.20308,-2.20928 -7.9416,-3.0571 0,0 17.6351,-11.75232 17.6351,-11.75232 z"
       inkscape:connector-curvature="0" />
    <use
       style=""
       id="use3643"
       xlink:href="#path3396"
       x="0"
       y="0"
       width="100%"
       height="100%"
       transform="translate(296.41146,-5.5419433)" />
    <use
       id="use3537"
       xlink:href="#path3396"
       x="0"
       y="0"
       width="100%"
       height="100%"
       transform="matrix(1.0649981,0,0,1.0358499,125.49506,-404.81615)"
       style="" />
    <path
       style="fill:#000000;fill-opacity:1;fill-rule:nonzero;stroke:none;stroke-width:1px;stroke-linecap:butt;stroke-linejoin:miter;stroke-opacity:1"
       id="path3370"
       d="M -0.32378973,151.68908 C 5.8581633,145.87454 12.24317,140.27185 18.965816,135.00549 c 12.7499,-7.82276 25.30262,-17.42033 40.385835,-20.59341 1.541336,0.28797 3.109411,-0.75913 4.655627,-0.54063 4.997856,0.70628 6.579876,5.44447 8.132116,9.17407 6.15,19.78764 8.47395,40.38697 10.90773,60.79606 4.59855,30.8936 5.6528,62.08824 6.56577,93.22392 0.52547,24.84684 0.67747,49.69807 0.91666,74.54793 0.0166,14.2053 -0.28005,28.4364 1.79412,42.53829 1.11492,7.7233 3.74332,15.09673 5.89658,22.58773 1.35091,2.55248 1.76026,5.77885 3.973796,7.80784 7.08166,5.46136 1.14669,0.69408 -22.904556,11.19847 -0.4551,0.19877 0.69598,-0.69519 0.91772,-1.11593 0.32877,-0.62384 0.55385,-1.29754 0.71223,-1.97684 0.36845,-1.58026 0.92334,-6.69364 1.06667,-7.89183 1.87894,-17.21968 2.02963,-34.53237 2.89124,-51.80544 0.68095,-14.09873 2.20773,-28.24676 5.2018,-42.09773 0.90627,-4.19253 3.39693,-13.01334 4.5627,-17.24315 0.79951,-2.50792 1.58553,-5.01962 2.39854,-7.52375 1.74605,-5.37797 2.40295,-7.57703 4.638866,-12.75379 2.25945,-5.23123 4.942,-10.31422 7.36709,-15.48019 3.03091,-5.80856 6.39928,-11.4548 9.55674,-17.2064 4.94428,-9.72761 15.48214,-15.69665 27.55254,-17.8546 3.62771,-0.40464 5.19998,2.90939 6.81472,5.39084 6.35352,11.5763 10.80623,23.93744 15.61098,36.11492 6.53582,19.162 14.64454,37.74212 23.8761,55.89709 7.16028,13.82683 15.64442,26.98892 24.88343,39.67989 3.48265,3.98851 6.62776,8.69351 11.65304,11.09798 1.00371,0.3597 0.55703,0.44059 1.34521,-0.21598 -7.46506,3.79034 -14.75902,7.89011 -22.39525,11.37102 -0.62013,0.28269 0.80867,-1.05728 1.07388,-1.65183 1.21338,-2.71999 1.23931,-4.7072 1.70218,-7.74538 2.79614,-25.15585 3.09641,-50.4936 3.6404,-75.75851 -0.6197,-44.19787 -5.41591,-88.20569 -9.69575,-132.18957 -2.48662,-23.72464 -4.90013,-47.45655 -6.80069,-71.22909 -0.25249,-3.78107 -0.57764,-7.55678 -0.8294,-11.33776 0,0 23.56756,-11.280369 23.56756,-11.280369 l 0,0 c -0.027,3.87816 -0.0573,7.75702 0.0778,11.634189 0.71704,24.1225 2.50433,48.19714 4.52208,72.25242 3.40168,44.08571 8.10128,88.10444 9.96915,132.27928 0.0388,24.93755 0.38813,49.90632 -1.13039,74.81556 -0.12157,1.89653 -0.27406,6.17361 -0.78545,8.30931 -2.27483,9.5003 -17.54499,19.78133 -26.73192,14.30398 -4.89425,-3.16647 -8.04531,-8.06152 -11.59156,-12.42469 -8.85402,-13.05712 -17.02619,-26.48684 -24.21995,-40.41315 -9.25265,-18.19961 -17.36175,-36.83568 -24.29085,-55.91978 -4.7522,-11.95648 -9.51641,-24.02343 -16.29886,-35.13385 -1.57909,-2.11023 -2.37004,-3.91422 -5.15048,-2.42644 -7.38066,3.97859 -23.70272,12.7802 21.46401,-11.94194 0.25372,-0.13887 -0.44692,0.35751 -0.65772,0.5489 -1.27103,1.15399 -2.51661,1.94114 -2.90594,3.69651 -3.59045,5.62592 -6.58726,11.59225 -10.16844,17.22535 -2.48828,5.19442 -5.30479,10.25788 -7.70039,15.48932 -2.39597,5.23225 -3.02099,7.23569 -4.93578,12.70971 -0.87227,2.49364 -1.72177,4.99416 -2.58264,7.49125 -0.46242,1.61127 -4.53811,15.75281 -4.87215,17.16715 -3.24338,13.73274 -4.90796,27.8499 -5.46124,41.8825 -0.81493,17.13247 -0.67174,34.29068 -1.79954,51.41527 -0.41899,5.6178 -1.90666,48.16306 -26.111946,23.63023 -2.30526,-2.60879 -2.82626,-5.98313 -4.26535,-9.05206 -1.96399,-7.66939 -4.51628,-15.19489 -5.64204,-23.0392 -1.95106,-14.34024 -1.24234,-28.78237 -1.15211,-43.20346 0.29784,-24.97941 0.47525,-49.96387 0.0437,-74.94295 -0.64053,-31.06371 -1.81293,-62.18842 -6.561229,-92.98337 -2.743133,-19.94763 -5.551305,-40.20116 -12.398029,-59.33914 -2.892357,-6.44094 -3.866775,-7.06833 -10.970463,-5.49617 -9.292969,2.63089 -18.322935,9.11677 14.917159,-9.25849 0.977626,-0.54043 -1.999989,1.0086 -2.9744,1.55406 -2.361047,1.32172 -4.598086,2.83072 -6.994266,4.10019 -6.642004,5.06826 -12.886009,10.47568 -19.002236,16.08103 0,0 -24.56440873,9.7382 -24.56440873,9.7382 z"
       inkscape:connector-curvature="0" />
  </g>
  <g
     inkscape:groupmode="layer"
     id="layer2"
     inkscape:label="Layer 0" />
</svg>
